<?xml version="1.0" encoding="UTF-8" standalone="no"?><!DOCTYPE svg PUBLIC "-//W3C//DTD SVG 1.1//EN" "http://www.w3.org/Graphics/SVG/1.1/DTD/svg11.dtd"><svg width="100%" height="100%" viewBox="0 0 43 41" version="1.1" xmlns="http://www.w3.org/2000/svg" xmlns:xlink="http://www.w3.org/1999/xlink" xml:space="preserve" xmlns:serif="http://www.serif.com/" style="fill-rule:evenodd;clip-rule:evenodd;"><g><g><path d="M16.408,4.78l-1.32,3.91l-0.68,2.013l-2.125,0.026l-4.119,0.051l1.227,3.952l0.628,2.024l-1.697,1.269l-3.311,2.475l3.311,2.475l1.697,1.269l-0.628,2.024l-1.227,3.952l4.119,0.051l2.125,0.026l0.68,2.013l1.32,3.91l3.356,-2.382l1.736,-1.232l5.092,3.614l1.32,-3.91l0.68,-2.013l2.125,-0.026l4.119,-0.051l-1.227,-3.952l-0.628,-2.024l1.697,-1.269l3.311,-2.475l-3.311,-2.475l-1.697,-1.269l0.628,-2.024l1.227,-3.952l-4.119,-0.051l-2.125,-0.026l-0.68,-2.013l-1.32,-3.91l-3.356,2.382l-1.736,1.232l-1.736,-1.232l-3.356,-2.382m-1.552,-4.78l6.644,4.715l6.644,-4.715l2.611,7.73l8.139,0.1l-2.42,7.792l6.526,4.878l-6.526,4.878l2.42,7.792l-8.139,0.1l-2.611,7.73l-6.644,-4.715l-6.644,4.715l-2.611,-7.73l-8.139,-0.1l2.42,-7.792l-6.526,-4.878l6.526,-4.878l-2.42,-7.792l8.139,-0.1l2.611,-7.73Z" style="fill:#707070;fill-rule:nonzero;"/></g><path d="M16.191,28.102l12.549,-12.549l-2.122,-2.122l-12.549,12.549l2.122,2.122Z" style="fill:#707070;"/><g><circle cx="17" cy="16" r="3" style="fill:#fff;"/><circle cx="17" cy="16" r="1.5" style="fill:none;stroke:#707070;stroke-width:3px;"/></g><g><circle cx="26" cy="25" r="3" style="fill:#fff;"/><circle cx="26" cy="25" r="1.5" style="fill:none;stroke:#707070;stroke-width:3px;"/></g></g></svg>