<?xml version="1.0" encoding="UTF-8" standalone="no"?><!DOCTYPE svg PUBLIC "-//W3C//DTD SVG 1.1//EN" "http://www.w3.org/Graphics/SVG/1.1/DTD/svg11.dtd"><svg width="100%" height="100%" viewBox="0 0 43 41" version="1.1" xmlns="http://www.w3.org/2000/svg" xmlns:xlink="http://www.w3.org/1999/xlink" xml:space="preserve" xmlns:serif="http://www.serif.com/" style="fill-rule:evenodd;clip-rule:evenodd;stroke-linejoin:round;stroke-miterlimit:2;"><path d="M21.5,7.948l-3.134,7.69l-0.702,1.722l-1.855,0.137l-8.281,0.614l6.346,5.382l1.414,1.199l-0.44,1.801l-1.977,8.083l8.629,-5.358l8.629,5.358l-1.977,-8.083l-0.44,-1.801l1.414,-1.199l6.346,-5.382l-8.281,-0.614l-1.855,-0.137l-0.702,-1.722l-3.134,-7.69m0,-7.948l5.913,14.506l15.587,1.155l-11.933,10.12l3.721,15.219l-13.288,-8.251l-13.288,8.251l3.721,-15.219l-11.933,-10.12l15.587,-1.155l5.913,-14.506Z" style="fill:#707070;fill-rule:nonzero;"/></svg>