<svg xmlns="http://www.w3.org/2000/svg" width="43" height="41.377" viewBox="0 0 43 41.377"><g transform="translate(282.509 -2.539)" fill="none"><path d="M-278.567,25.34l.032-.034q-.171-.168-.337-.344a13.678,13.678,0,0,1,0-18.575,11.939,11.939,0,0,1,17.558,0q.156.165.306.335.15-.17.306-.335a11.939,11.939,0,0,1,17.558,0,13.678,13.678,0,0,1,0,18.575q-.166.176-.337.344l.032.034-17.558,18.576Z" stroke="none"/><path d="M -261.0082397460938 39.54816055297852 L -247.5785675048828 25.3396167755127 L -247.6842346191406 25.22783851623535 L -245.5850830078125 23.16549873352051 C -245.4969635009766 23.07892799377441 -245.4095306396484 22.98980903625488 -245.3252105712891 22.90061950683594 C -243.5089111328125 20.97926902770996 -242.5086364746094 18.41278839111328 -242.5086364746094 15.67394924163818 C -242.5086364746094 12.93510913848877 -243.5089111328125 10.36862850189209 -245.3253936767578 8.447098731994629 C -247.0979309082031 6.571719169616699 -249.4413909912109 5.538898944854736 -251.9240417480469 5.538898944854736 C -254.4066925048828 5.538898944854736 -256.7501220703125 6.571719169616699 -258.5230102539063 8.447439193725586 C -258.6015930175781 8.530558586120605 -258.6806945800781 8.61724853515625 -258.7581481933594 8.705119132995605 L -261.00830078125 11.25777912139893 L -263.2588195800781 8.705458641052246 C -263.3359680175781 8.617979049682617 -263.415283203125 8.531068801879883 -263.4948425292969 8.4468994140625 C -265.2669372558594 6.571649074554443 -267.6101989746094 5.538898944854736 -270.0929260253906 5.538898944854736 C -272.5758056640625 5.538898944854736 -274.9193420410156 6.571719169616699 -276.6920471191406 8.447299003601074 C -278.5083618164063 10.36864852905273 -279.5086669921875 12.93511867523193 -279.5086669921875 15.67394924163818 C -279.5086669921875 18.41277885437012 -278.5083618164063 20.979248046875 -276.6916809082031 22.90100860595703 C -276.607421875 22.99017906188965 -276.5201721191406 23.07912826538086 -276.4323425292969 23.1653995513916 L -274.3323364257813 25.2283992767334 L -274.4381103515625 25.3402214050293 L -261.0082397460938 39.54816055297852 M -261.0081787109375 43.91550064086914 L -278.56689453125 25.33949851989746 L -278.5347290039063 25.30548858642578 C -278.6487731933594 25.19344902038574 -278.7611694335938 25.07891845703125 -278.8721313476563 24.96149826049805 C -283.7208557128906 19.83239936828613 -283.7208557128906 11.51549911499023 -278.8721313476563 6.386398792266846 C -276.4477844238281 3.821398973464966 -273.2703247070313 2.538898944854736 -270.0929260253906 2.538898944854736 C -266.9155578613281 2.538898944854736 -263.7383117675781 3.821398973464966 -261.3143920898438 6.386398792266846 C -261.2102355957031 6.496598720550537 -261.1083374023438 6.608278751373291 -261.0086364746094 6.721348762512207 C -260.9089660644531 6.608278751373291 -260.80712890625 6.496598720550537 -260.7029418945313 6.386398792266846 C -258.2785949707031 3.821398973464966 -255.101318359375 2.538898944854736 -251.9240417480469 2.538898944854736 C -248.7467651367188 2.538898944854736 -245.5694885253906 3.821398973464966 -243.1451416015625 6.386398792266846 C -238.2964782714844 11.51549911499023 -238.2964782714844 19.83239936828613 -243.1451416015625 24.96149826049805 C -243.2561340332031 25.07891845703125 -243.3685607910156 25.19344902038574 -243.4826049804688 25.30549812316895 L -243.4504699707031 25.33949851989746 L -261.0081787109375 43.91550064086914 Z" stroke="none" fill="#707070"/></g></svg>